<svg xmlns="http://www.w3.org/2000/svg" xmlns:xlink="http://www.w3.org/1999/xlink" width="239.42" height="217.53" viewBox="0 0 239.42 217.53"><defs><style>.a{fill:none;}.b{fill:#fff;}.c{clip-path:url(#a);}.d{fill:url(#b);}.e{fill:#005380;}</style><clipPath id="a" transform="translate(0 91.29)"><path class="a" d="M162.42,33.65V44.43h-2.64V33.65Zm-46.1,0,4.37,10.2V33.65h4.22L128.26,41l3.1-7.32h4.28V44.43H133V36l-3.74,8.44H127L123.26,36v8.46H118L117,42h-5.36l-1,2.42h-2.81l4.61-10.79Zm-.22,6.13-1.76-4.29-1.75,4.29Zm30.06-3.88V33.65h-8.6V44.43h8.6V42.19h-6V40.05H146V37.84h-5.88V35.9ZM189,65.09v-1a6.13,6.13,0,0,1-3.51,1h-21v-3.5c0-.4,0-.44-.45-.43h-.34v3.93h-6.94V61a9.18,9.18,0,0,1-3.57.52h-.83v3.55h-8.38l-2.07-2.34-2.18,2.34H126.07v-15h13.88l2,2.31,2.13-2.31h9.31c1.06,0,2.81.1,3.6.86v-.86h8.3a6.88,6.88,0,0,1,3.48.86v-.86h12.57v.86a5,5,0,0,1,3.09-.86h7v.86a5.48,5.48,0,0,1,3.23-.86h4.77V0H107.86V38.66l3.1-7.13h6.71l.89,1.78V31.53h7.86l1.71,3.87,1.69-3.87h25a4.37,4.37,0,0,1,2.92.87v-.87h6.83v.87a8.9,8.9,0,0,1,4.31-.87h9.91l.91,1.78V31.53H187l1,1.78V31.53h7.14v15H188l-1.38-2.28v2.28h-9l-1-2.41h-2.21l-1,2.41h-4.68a8.66,8.66,0,0,1-4.13-.93v.93H153.44V43.14c0-.48-.08-.52-.38-.52h-.42v3.93h-21.5V44.69l-.78,1.87h-4.48l-.78-1.84v1.83h-8.65l-1-2.41h-2.22l-1,2.41h-4.39V91.93h91.58V64.4a9.16,9.16,0,0,1-3.78.69Zm5.77-10.59h4.7V52.18h-5.13c-2.71,0-3.69,1.66-3.69,3.2,0,3.42,3,3.28,5.43,3.34a1.39,1.39,0,0,1,.9.24.91.91,0,0,1,.31.72.94.94,0,0,1-.31.7,1.5,1.5,0,0,1-1,.27h-5V63h5c2.6,0,4-1.1,4-3.4a3,3,0,0,0-.77-2.28,4.05,4.05,0,0,0-2.95-.87l-1.38,0a3.13,3.13,0,0,1-1-.13.81.81,0,0,1-.57-.8.86.86,0,0,1,.38-.78A1.84,1.84,0,0,1,194.76,54.49Zm-37,1.25c0,3-2.23,3.61-4.48,3.61h-3.2V63h-5l-3.17-3.56L138.59,63H128.38V52.18h10.37l3.16,3.54,3.28-3.54h8.23C155.45,52.18,157.74,52.76,157.74,55.75Zm-17.52,1.82-2.82-3.14H131v1.94h5.64v2.22H131v2.13h6.32Zm7.26-4.21-3.94,4.25L147.48,62Zm7.5,2.4c0-.93-.63-1.32-1.56-1.32h-3.36v2.72h3.33C154.37,57.14,155,56.67,155,55.75Zm13.78,3.12a3.08,3.08,0,0,1,.43,2V63h-2.59V61.6a3.16,3.16,0,0,0-.42-2.09c-.37-.39-.93-.48-1.87-.47h-2.77V63H159V52.18h5.93a6,6,0,0,1,3.1.53,2.49,2.49,0,0,1,1.33,2.39,3,3,0,0,1-1.83,2.85A2.89,2.89,0,0,1,168.76,58.87Zm-2.29-3.29a1,1,0,0,0-.53-1,2.69,2.69,0,0,0-1.23-.19h-3.18v2.4h3.14a2.44,2.44,0,0,0,1.26-.21A1.15,1.15,0,0,0,166.46,55.58Zm19.41,5.07h-5V63h5c2.6,0,4-1.1,4-3.4a3,3,0,0,0-.78-2.28,4.06,4.06,0,0,0-2.94-.87l-1.38,0a3.15,3.15,0,0,1-1-.13.81.81,0,0,1-.56-.8.85.85,0,0,1,.38-.78,1.82,1.82,0,0,1,1-.18h4.72V52.18h-5.16c-2.71,0-3.69,1.66-3.69,3.2,0,3.43,3,3.28,5.43,3.34a1.39,1.39,0,0,1,.9.24.91.91,0,0,1,.31.72.93.93,0,0,1-.3.7A1.49,1.49,0,0,1,185.87,60.65Zm-6.53-6.23V52.18h-8.6V63h8.6V60.72h-6V58.59h5.88V56.37h-5.88V54.43ZM192.9,33.65V44.43h-3.67l-4.87-8.08v8.08h-5.24l-1-2.42h-5.36l-1,2.42h-3a5.44,5.44,0,0,1-3.74-1.2,5.43,5.43,0,0,1-1.36-4.11,5.74,5.74,0,0,1,1.38-4.2A5.25,5.25,0,0,1,169,33.65h2.46V36H169a2.47,2.47,0,0,0-2,.64,3.48,3.48,0,0,0-.75,2.44,3.62,3.62,0,0,0,.73,2.53,2.45,2.45,0,0,0,1.79.55H170l3.62-8.48h3.84l4.36,10.2V33.65h3.93l4.53,7.51V33.65ZM177.2,39.78l-1.76-4.29-1.75,4.29Zm-19,2.52v2.14h-2.59V43.07a3.17,3.17,0,0,0-.42-2.09c-.37-.39-.93-.47-1.87-.47h-2.76v3.93h-2.57V33.65h5.93a6,6,0,0,1,3.1.53,2.5,2.5,0,0,1,1.33,2.39,3,3,0,0,1-1.83,2.86,2.91,2.91,0,0,1,1.27.92A3.08,3.08,0,0,1,158.16,42.29Zm-2.72-5.24a1.06,1.06,0,0,0-.53-1,2.71,2.71,0,0,0-1.23-.18h-3.17v2.4h3.14a2.47,2.47,0,0,0,1.26-.22A1.15,1.15,0,0,0,155.44,37.05Z"/></clipPath><radialGradient id="b" cx="195.44" cy="-303.87" r="127.27" gradientTransform="translate(-36.02 368.82) scale(0.85)" gradientUnits="userSpaceOnUse"><stop offset="0" stop-color="#5dc2ea"/><stop offset="0.1" stop-color="#42b9e3"/><stop offset="0.22" stop-color="#2f9cc7"/><stop offset="0.41" stop-color="#1674a0"/><stop offset="0.56" stop-color="#065c89"/><stop offset="0.65" stop-color="#005380"/><stop offset="1" stop-color="#005380"/></radialGradient></defs><title>partner</title><path class="b" d="M107.85,91.92h91.58V0H107.85Z" transform="translate(0 91.29)"/><g class="c"><circle class="d" cx="130.65" cy="108.77" r="108.77"/></g><path class="e" d="M102,90h-.81a4.71,4.71,0,0,1-.12-1.07c0-.3,0-.6-.6-.6H99.27V90h-.71V85.94h1.89c.65,0,1.38.23,1.38,1.14a1,1,0,0,1-.44.92.79.79,0,0,1,.37.75l0,.7c0,.21,0,.25.2.34Zm-.88-2.89c0-.52-.35-.56-.61-.56H99.27v1.13h1.13C100.77,87.71,101.09,87.62,101.09,87.13Zm3.35.89a4.38,4.38,0,1,0-4.37,4.35A4.35,4.35,0,0,0,104.45,88Zm-.66,0a3.72,3.72,0,1,1-3.71-3.72A3.66,3.66,0,0,1,103.79,88Z" transform="translate(0 91.29)"/><path class="b" d="M18.81,30.76V15.17h5.35c3.54,0,5.54,1.5,5.54,4.36,0,2.51-1.41,3.81-3.62,4.28l3.83,7h-2L24.17,24H20.65v6.72Zm1.83-8.36h3.41c2.44,0,3.81-.67,3.81-2.8S26.53,16.86,24,16.86H20.65Z" transform="translate(0 91.29)"/><path class="b" d="M32,25.2c0-4,2.7-5.79,5-5.79,2.63,0,4.64,1.85,4.64,5.88v.38H33.84c.06,2.51,1.52,3.86,3.35,3.86a3.76,3.76,0,0,0,3.35-1.81l1.05.93A5.18,5.18,0,0,1,37.06,31C34.43,31,32,29.08,32,25.2ZM40,24.25c-.15-2-1.1-3.33-2.93-3.33-1.5,0-2.91,1-3.16,3.33Z" transform="translate(0 91.29)"/><path class="b" d="M43.93,28.13c0-2.25,1.92-3.86,7.44-4.64V23a1.85,1.85,0,0,0-2.11-2.06,6,6,0,0,0-4,1.69l-.95-1.14a7.4,7.4,0,0,1,5.16-2.06c2.65,0,3.71,1.39,3.71,3.71V28a7.67,7.67,0,0,0,.32,2.74H51.62a4.69,4.69,0,0,1-.25-1.54,6,6,0,0,1-4.3,1.71C45.15,30.93,43.93,29.92,43.93,28.13Zm7.44-.25V24.76c-4.23.67-5.65,1.71-5.65,3.1,0,1.07.72,1.64,1.88,1.64A5.3,5.3,0,0,0,51.37,27.88Z" transform="translate(0 91.29)"/><path class="b" d="M56.87,30.76V15.17h1.81V30.76Z" transform="translate(0 91.29)"/><path class="b" d="M62.79,17.26V15.49h1.9v1.77Zm0,13.51V19.64h1.81V30.76Z" transform="translate(0 91.29)"/><path class="b" d="M67.65,29.08l1.1-1.1a4.57,4.57,0,0,0,3.48,1.54c1.73,0,2.68-.61,2.68-1.75s-1-1.54-2.87-2c-2.36-.57-4-1.2-4-3.35,0-1.69,1.47-3,3.9-3A5.78,5.78,0,0,1,76.21,21l-.95,1.2A4.8,4.8,0,0,0,72,20.88c-1.62,0-2.25.72-2.25,1.5,0,1,.88,1.41,2.63,1.81,2.51.61,4.23,1.22,4.23,3.52,0,2.13-1.92,3.27-4.45,3.27A5.88,5.88,0,0,1,67.65,29.08Z" transform="translate(0 91.29)"/><path class="b" d="M78.9,25.2c0-4,2.7-5.79,5-5.79,2.63,0,4.64,1.85,4.64,5.88v.38H80.72c.06,2.51,1.52,3.86,3.35,3.86a3.76,3.76,0,0,0,3.35-1.81l1.05.93A5.18,5.18,0,0,1,83.94,31C81.31,31,78.9,29.08,78.9,25.2Zm7.94-.95c-.15-2-1.1-3.33-2.93-3.33-1.5,0-2.91,1-3.16,3.33Z" transform="translate(0 91.29)"/><path class="b" d="M59.46,49.24V42.31H57.52v-1.5h1.94v-4h1.81v4h2.89v1.5H61.27v6.53c0,1.18.38,1.77,1.73,1.77a4.52,4.52,0,0,0,1.14-.15V52a10,10,0,0,1-1.58.13C60.22,52.08,59.46,51.18,59.46,49.24Z" transform="translate(0 91.29)"/><path class="b" d="M67.3,51.94V36.35h1.83v6.13a6,6,0,0,1,4.17-1.9,3,3,0,0,1,3.29,3.33v8H74.78V44.31c0-1.47-.63-2.17-2-2.17a5.29,5.29,0,0,0-3.6,1.79v8Z" transform="translate(0 91.29)"/><path class="b" d="M78.95,46.37c0-4,2.7-5.79,5-5.79,2.63,0,4.64,1.85,4.64,5.88v.38H80.76c.06,2.51,1.52,3.86,3.35,3.86a3.76,3.76,0,0,0,3.35-1.81l1.05.93A5.18,5.18,0,0,1,84,52.17C81.35,52.17,78.95,50.25,78.95,46.37Zm7.94-.95c-.15-2-1.1-3.33-2.93-3.33-1.5,0-2.91,1-3.16,3.33Z" transform="translate(0 91.29)"/><path class="b" d="M0,77.81V62.47H1.81V64a4.84,4.84,0,0,1,3.67-1.77C8,62.24,10,64.14,10,68s-2,5.75-4.72,5.75a4.74,4.74,0,0,1-3.48-1.6v5.65ZM8.2,68c0-2.84-1.35-4.23-3.14-4.23a4.41,4.41,0,0,0-3.24,1.71v5.1A4.31,4.31,0,0,0,5,72.29C7,72.29,8.2,71,8.2,68Z" transform="translate(0 91.29)"/><path class="b" d="M12.05,68c0-3.83,2.44-5.79,5.18-5.79s5.16,2,5.16,5.79S20,73.83,17.23,73.83,12.05,71.85,12.05,68Zm8.51,0c0-2.32-1.12-4.23-3.33-4.23S13.88,65.53,13.88,68s1.1,4.26,3.35,4.26S20.56,70.58,20.56,68Z" transform="translate(0 91.29)"/><path class="b" d="M26.06,70.9V64H24.12v-1.5h1.94v-4h1.81v4h2.89V64H27.87V70.5c0,1.18.38,1.77,1.73,1.77a4.52,4.52,0,0,0,1.14-.15v1.5a10,10,0,0,1-1.58.13C26.82,73.74,26.06,72.84,26.06,70.9Z" transform="translate(0 91.29)"/><path class="b" d="M32.89,68c0-4,2.7-5.79,5-5.79,2.63,0,4.64,1.85,4.64,5.88v.38H34.7c.06,2.51,1.52,3.86,3.35,3.86a3.76,3.76,0,0,0,3.35-1.81l1.05.93a5.18,5.18,0,0,1-4.53,2.36C35.29,73.83,32.89,71.91,32.89,68Zm7.94-.95c-.15-2-1.1-3.33-2.93-3.33-1.5,0-2.91,1-3.16,3.33Z" transform="translate(0 91.29)"/><path class="b" d="M45.66,73.6V62.47h1.83v1.66a6,6,0,0,1,4.17-1.9,3,3,0,0,1,3.29,3.33v8H53.14V66c0-1.47-.63-2.17-2-2.17a5.29,5.29,0,0,0-3.6,1.79v8Z" transform="translate(0 91.29)"/><path class="b" d="M59.35,70.9V64H57.41v-1.5h1.94v-4h1.81v4h2.89V64H61.16V70.5c0,1.18.38,1.77,1.73,1.77A4.52,4.52,0,0,0,64,72.12v1.5a10,10,0,0,1-1.58.13C60.11,73.74,59.35,72.84,59.35,70.9Z" transform="translate(0 91.29)"/><path class="b" d="M67.27,60.09V58.32h1.9v1.77Zm0,13.51V62.47h1.81V73.6Z" transform="translate(0 91.29)"/><path class="b" d="M72.29,71c0-2.25,1.92-3.86,7.44-4.64v-.51a1.85,1.85,0,0,0-2.11-2.06,6,6,0,0,0-4,1.69l-.95-1.14a7.4,7.4,0,0,1,5.16-2.06c2.65,0,3.71,1.39,3.71,3.71v4.91a7.67,7.67,0,0,0,.32,2.74H80a4.69,4.69,0,0,1-.25-1.54,6,6,0,0,1-4.3,1.71C73.51,73.76,72.29,72.75,72.29,71Zm7.44-.25V67.59c-4.23.67-5.65,1.71-5.65,3.1,0,1.07.72,1.64,1.88,1.64A5.3,5.3,0,0,0,79.73,70.71Z" transform="translate(0 91.29)"/><path class="b" d="M85.25,73.6V58h1.81V73.6Z" transform="translate(0 91.29)"/><path class="b" d="M90.34,60.69v-2.4h-.88v-.45H91.7v.45h-.88v2.4Z" transform="translate(0 91.29)"/><path class="b" d="M92.22,60.69V57.84h.63l.76,2.26h0l.74-2.26H95v2.85h-.47V58.57h0a5.79,5.79,0,0,1-.17.58l-.55,1.54h-.43l-.55-1.54a4.86,4.86,0,0,1-.17-.6h0v2.14Z" transform="translate(0 91.29)"/></svg>